<svg width="1024" height="1024" viewBox="0 0 1024 1024" fill="none" xmlns="http://www.w3.org/2000/svg">
<path d="M612.43 313.739C613.663 313.734 613.663 313.734 614.922 313.728C617.664 313.717 620.405 313.721 623.147 313.725C625.119 313.721 627.091 313.716 629.062 313.71C634.41 313.696 639.757 313.696 645.104 313.698C649.575 313.7 654.045 313.695 658.515 313.69C669.068 313.679 679.62 313.678 690.173 313.684C701.041 313.69 711.909 313.678 722.777 313.657C732.122 313.639 741.466 313.633 750.811 313.636C756.386 313.638 761.961 313.636 767.536 313.622C772.783 313.609 778.03 313.611 783.278 313.624C785.196 313.626 787.115 313.624 789.034 313.615C804.777 313.552 817.336 314.641 830 325C832.281 327.273 834.37 329.631 836.449 332.09C839.679 335.774 843.137 339.187 846.625 342.625C851.037 346.991 855.327 351.367 859.332 356.113C862.255 359.42 865.452 362.458 868.59 365.559C871.269 368.272 873.746 371.108 876.223 374.004C878.233 376.261 880.348 378.377 882.5 380.5C885.204 383.168 887.793 385.855 890.25 388.75C893.483 392.527 896.967 396.007 900.5 399.5C904.623 403.577 908.585 407.695 912.336 412.121C914.257 414.29 916.3 416.291 918.375 418.313C921.601 421.489 924.496 424.768 927.312 428.313C930.701 432.577 934.321 436.315 938.25 440.063C944.326 445.913 949.738 453.12 950.128 461.868C950.129 463.049 950.13 464.23 950.131 465.446C950.134 466.437 950.134 466.437 950.138 467.448C950.143 469.677 950.142 471.906 950.14 474.135C950.143 475.743 950.146 477.351 950.149 478.959C950.157 483.391 950.159 487.823 950.16 492.255C950.162 497.03 950.169 501.805 950.176 506.581C950.19 517.032 950.196 527.483 950.2 537.934C950.203 544.461 950.207 550.989 950.212 557.517C950.224 575.594 950.234 593.672 950.238 611.749C950.238 612.906 950.238 614.064 950.238 615.257C950.238 616.417 950.239 617.578 950.239 618.773C950.239 621.125 950.24 623.476 950.24 625.828C950.24 626.994 950.241 628.161 950.241 629.363C950.245 648.24 950.262 667.118 950.286 685.996C950.309 705.382 950.322 724.769 950.323 744.156C950.324 755.038 950.33 765.921 950.348 776.803C950.363 786.076 950.368 795.348 950.36 804.621C950.356 809.348 950.357 814.075 950.371 818.802C950.384 823.14 950.383 827.477 950.37 831.814C950.369 833.374 950.372 834.933 950.38 836.493C950.523 863.566 942.007 886.444 923 906C904.635 923.251 883.359 928.319 858.948 928.267C857.241 928.271 855.534 928.276 853.828 928.281C849.165 928.293 844.503 928.293 839.841 928.291C834.802 928.29 829.763 928.301 824.724 928.311C814.862 928.327 805.001 928.333 795.139 928.334C787.12 928.335 779.1 928.339 771.081 928.346C748.323 928.363 725.566 928.372 702.808 928.371C701.582 928.371 700.357 928.371 699.094 928.371C697.867 928.371 696.639 928.37 695.375 928.37C675.489 928.37 655.603 928.389 635.717 928.417C615.277 928.446 594.837 928.459 574.397 928.458C562.93 928.457 551.463 928.463 539.996 928.484C530.233 928.502 520.47 928.507 510.708 928.493C505.731 928.487 500.755 928.486 495.779 928.504C491.214 928.52 486.65 928.517 482.085 928.499C480.443 928.496 478.801 928.5 477.159 928.511C456.041 928.646 435.446 923.134 419.437 908.688C418.633 907.801 417.829 906.914 417 906C416.335 905.327 415.67 904.654 414.984 903.961C405.291 893.839 399.467 882.182 395 869C394.765 868.312 394.531 867.623 394.289 866.914C392.025 859.662 391.851 852.226 391.853 844.702C391.849 843.798 391.845 842.894 391.842 841.963C391.831 838.953 391.827 835.942 391.823 832.932C391.817 830.766 391.81 828.601 391.803 826.435C391.782 819.342 391.772 812.249 391.762 805.156C391.758 802.711 391.754 800.266 391.749 797.82C391.73 786.337 391.716 774.855 391.708 763.372C391.698 750.124 391.672 736.876 391.631 723.628C391.601 713.38 391.586 703.132 391.583 692.884C391.581 686.766 391.572 680.648 391.546 674.53C391.523 668.777 391.519 663.026 391.529 657.273C391.53 655.164 391.523 653.055 391.51 650.946C391.492 648.063 391.499 645.181 391.512 642.298C391.501 641.467 391.49 640.636 391.479 639.78C391.552 633.143 393.37 627.791 397.973 622.906C403.909 618.912 408.898 617.743 416 619C422.047 621.113 425.353 625.29 428.586 630.609C430.364 634.873 430.417 638.318 430.379 642.886C430.383 643.769 430.388 644.653 430.392 645.563C430.404 648.518 430.394 651.472 430.385 654.427C430.389 656.547 430.394 658.668 430.401 660.789C430.413 665.355 430.415 669.92 430.411 674.486C430.404 681.71 430.42 688.934 430.439 696.159C430.477 711.502 430.49 726.845 430.5 742.188C430.511 758.735 430.526 775.282 430.571 791.829C430.589 799.005 430.593 806.18 430.586 813.356C430.584 817.829 430.595 822.303 430.609 826.776C430.613 828.844 430.612 830.912 430.605 832.979C430.558 848.944 431.408 863.39 442.73 875.914C444.418 877.42 446.136 878.72 448 880C448.889 880.673 448.889 880.673 449.797 881.359C460.173 888.648 472.596 888.435 484.758 888.374C486.432 888.377 488.107 888.381 489.781 888.386C494.355 888.397 498.928 888.389 503.501 888.378C508.444 888.369 513.386 888.377 518.329 888.383C528 888.393 537.671 888.386 547.342 888.374C558.608 888.361 569.874 888.362 581.14 888.364C601.242 888.367 621.344 888.356 641.446 888.336C660.946 888.317 680.446 888.31 699.946 888.316C721.191 888.322 742.437 888.322 763.683 888.31C765.948 888.309 768.214 888.308 770.48 888.307C771.594 888.306 772.709 888.305 773.857 888.305C781.709 888.301 789.56 888.301 797.411 888.303C806.978 888.305 816.545 888.3 826.111 888.286C830.991 888.278 835.872 888.274 840.752 888.279C845.22 888.283 849.689 888.278 854.158 888.265C855.773 888.262 857.388 888.263 859.002 888.267C873.62 888.301 886.973 886.712 898 876C909.035 863.27 911.303 850.402 911.278 833.985C911.283 832.463 911.289 830.942 911.296 829.42C911.312 825.256 911.315 821.092 911.317 816.928C911.32 812.431 911.335 807.935 911.349 803.438C911.371 795.652 911.387 787.867 911.397 780.082C911.411 768.825 911.437 757.569 911.465 746.313C911.51 728.049 911.547 709.785 911.578 691.522C911.608 673.783 911.643 656.044 911.683 638.305C911.685 637.211 911.688 636.117 911.69 634.99C911.702 629.502 911.715 624.015 911.727 618.527C911.831 573.018 911.92 527.509 912 482C910.932 482.007 909.864 482.013 908.764 482.02C898.672 482.081 888.58 482.126 878.488 482.155C873.3 482.171 868.113 482.192 862.925 482.226C857.913 482.259 852.901 482.277 847.889 482.285C845.982 482.29 844.076 482.301 842.169 482.317C827.22 482.44 815.13 481.757 803.801 470.891C794.848 461.292 791.663 451.456 791.773 438.463C791.773 437.545 791.772 436.627 791.772 435.681C791.773 432.673 791.789 429.665 791.805 426.656C791.808 424.56 791.811 422.464 791.813 420.368C791.821 414.871 791.84 409.373 791.863 403.876C791.883 398.258 791.892 392.641 791.902 387.023C791.924 376.016 791.958 365.008 792 354C790.533 354.004 790.533 354.004 789.037 354.008C765.242 354.075 741.447 354.124 717.653 354.155C706.146 354.171 694.639 354.192 683.132 354.226C673.103 354.256 663.073 354.276 653.044 354.282C647.733 354.286 642.423 354.295 637.113 354.317C632.113 354.338 627.114 354.344 622.114 354.339C620.281 354.34 618.447 354.346 616.613 354.358C614.106 354.373 611.6 354.369 609.093 354.361C608.009 354.374 608.009 354.374 606.903 354.387C599.736 354.324 594.232 351.941 589 347C585.325 341.75 584.467 337.394 585 331C587.007 324.505 591.284 319.603 597 316C602.202 314.207 606.975 313.712 612.43 313.739Z" fill="white"/>
<path d="M456 259.5C459.884 262.645 463.174 266.317 466.498 270.037C473.223 277.556 480.491 284.551 487.668 291.633C489.843 293.84 491.897 296.106 493.937 298.438C498.392 303.429 503.082 308.147 507.863 312.826C510.836 315.755 513.676 318.734 516.398 321.898C520.218 326.322 524.332 330.407 528.5 334.5C533.312 339.226 537.941 344.006 542.339 349.121C545.371 352.551 548.687 355.692 551.988 358.861C555.656 362.45 556.938 364.353 557.134 369.568C557.143 371.077 557.146 372.586 557.145 374.096C557.15 375.333 557.15 375.333 557.155 376.595C557.165 379.324 557.167 382.052 557.168 384.781C557.171 386.676 557.174 388.57 557.178 390.464C557.184 394.435 557.186 398.406 557.185 402.377C557.185 407.472 557.199 412.567 557.216 417.661C557.227 421.573 557.229 425.485 557.229 429.397C557.23 431.275 557.234 433.154 557.242 435.033C557.252 437.657 557.249 440.28 557.243 442.904C557.248 443.684 557.254 444.463 557.26 445.266C557.238 449.054 557.154 450.768 555 454C549.45 453.412 544.948 451.431 539.937 449.125C539.069 448.729 538.201 448.332 537.306 447.924C522.253 440.963 507.745 433.285 494 424C493.047 423.38 492.095 422.76 491.113 422.121C481.849 416.067 472.935 409.526 464 403C462.825 402.144 462.825 402.144 461.625 401.271C451.959 394.228 442.396 387.081 433.049 379.617C423.879 372.369 416.852 369.118 405 370C394.337 373.047 385.761 381.894 377.848 389.344C375.388 391.638 372.876 393.825 370.312 396C360.329 404.842 351.366 415.799 349.559 429.297C349.157 440.755 352.612 449.589 357 460C357.684 461.69 358.366 463.38 359.047 465.07C368.394 487.914 379.839 510.453 395.891 529.371C397 531 397 531 397 534C366.816 534.068 336.633 534.122 306.449 534.153C302.884 534.157 299.32 534.161 295.755 534.165C295.045 534.166 294.335 534.166 293.604 534.167C282.119 534.18 270.633 534.204 259.147 534.231C247.359 534.26 235.571 534.276 223.782 534.282C217.162 534.286 210.542 534.295 203.922 534.317C197.691 534.338 191.46 534.344 185.228 534.339C182.942 534.34 180.655 534.346 178.369 534.358C175.245 534.373 172.121 534.369 168.997 534.361C168.095 534.37 167.192 534.378 166.262 534.387C158.844 534.335 151.946 532.845 146.304 527.591C139.392 519.157 140.171 507.561 139.976 497.281C139.948 495.939 139.948 495.939 139.92 494.569C139.825 489.828 139.757 485.087 139.709 480.346C139.665 476.46 139.568 472.581 139.422 468.697C138.113 432.994 138.113 432.994 147.196 423.056C150.232 420.318 153.382 417.927 156.772 415.647C160.43 412.943 163.123 409.491 166 406C167.293 404.648 168.601 403.31 169.937 402C170.939 401.01 170.939 401.01 171.961 400C173.32 398.667 174.68 397.333 176.039 396C179.251 392.825 182.373 389.63 185.32 386.207C189.51 381.351 193.937 376.733 198.433 372.162C199.397 371.176 200.355 370.184 201.306 369.186C208.134 362.03 213.9 357.18 224.062 356.625C238.685 358.018 247.68 370.562 257.404 380.44C261.574 384.66 265.82 388.695 270.342 392.537C272 394 272 394 274.25 396.5C275.837 398.203 275.837 398.203 277.745 397.938C281.107 396.54 283.328 394.058 285.832 391.496C286.664 390.661 286.664 390.661 287.513 389.809C288.688 388.628 289.858 387.444 291.026 386.256C292.789 384.462 294.562 382.678 296.338 380.897C301.536 375.663 306.635 370.402 311.427 364.791C314.336 361.478 317.489 358.407 320.625 355.313C321.267 354.675 321.909 354.038 322.57 353.381C325.257 350.713 327.949 348.05 330.644 345.391C333.194 342.803 335.63 340.135 338.062 337.438C342.9 332.107 347.932 327.016 353.078 321.984C355.27 319.798 357.309 317.518 359.328 315.172C363.841 309.958 368.767 305.184 373.684 300.355C377.079 296.997 380.384 293.622 383.5 290C387.944 284.834 392.825 280.127 397.684 275.355C401.176 271.901 404.541 268.425 407.723 264.68C419.988 250.449 440.768 249.036 456 259.5Z" fill="#278B3C"/>
<path d="M170.351 99.619C172.053 99.6156 173.756 99.6108 175.458 99.6049C180.094 99.5924 184.731 99.5985 189.367 99.6078C194.384 99.6146 199.4 99.6041 204.417 99.5959C214.227 99.5826 224.038 99.5854 233.848 99.5941C241.824 99.6009 249.801 99.6018 257.777 99.5985C258.914 99.5981 260.052 99.5976 261.224 99.5971C263.535 99.5962 265.845 99.5952 268.156 99.5942C289.799 99.5857 311.442 99.5955 333.085 99.6116C351.637 99.625 370.19 99.6227 388.742 99.6089C410.312 99.5928 431.882 99.5865 453.451 99.5957C455.753 99.5967 458.055 99.5976 460.357 99.5985C462.055 99.5992 462.055 99.5992 463.788 99.5999C471.751 99.6025 479.714 99.5982 487.678 99.5911C497.387 99.5827 507.096 99.585 516.806 99.6009C521.755 99.6088 526.705 99.612 531.654 99.602C536.192 99.593 540.73 99.5981 545.268 99.6139C546.903 99.6173 548.537 99.6156 550.171 99.6083C575.746 99.5025 596.233 107.549 615 125C634.049 145.04 638.321 168.649 638.301 195.23C638.305 197.393 638.309 199.555 638.314 201.717C638.321 206.232 638.321 210.746 638.316 215.26C638.31 221.034 638.327 226.807 638.35 232.58C638.365 237.039 638.366 241.497 638.362 245.955C638.363 248.084 638.368 250.213 638.378 252.341C638.391 255.318 638.384 258.294 638.372 261.27C638.38 262.141 638.388 263.011 638.396 263.908C638.342 270.2 637.459 275.981 633.352 281.023C627.42 285.666 622.762 287.902 615 287C608.874 285.655 605.61 283.26 602 278C598.803 272.801 598.572 268.691 598.615 262.773C598.607 261.408 598.607 261.408 598.599 260.016C598.589 258.047 598.586 256.077 598.589 254.108C598.594 250.983 598.58 247.859 598.561 244.735C598.524 238.094 598.51 231.453 598.5 224.812C598.488 217.131 598.466 209.449 598.42 201.767C598.406 198.704 598.411 195.64 598.415 192.577C598.371 177.064 596.886 164.508 585.824 152.672C574.062 141.702 562.118 140.7 546.616 140.739C544.933 140.736 543.251 140.732 541.568 140.728C536.953 140.717 532.339 140.72 527.725 140.724C522.744 140.726 517.764 140.717 512.784 140.71C503.03 140.697 493.277 140.695 483.524 140.698C475.596 140.699 467.668 140.698 459.74 140.693C458.612 140.693 457.483 140.692 456.321 140.692C454.028 140.69 451.736 140.689 449.444 140.688C427.947 140.677 406.45 140.679 384.954 140.685C365.29 140.691 345.626 140.679 325.962 140.66C305.768 140.641 285.575 140.633 265.381 140.636C254.045 140.638 242.709 140.636 231.373 140.622C221.722 140.61 212.072 140.608 202.422 140.62C197.499 140.626 192.576 140.627 187.654 140.615C183.144 140.605 178.635 140.608 174.126 140.622C172.498 140.624 170.869 140.622 169.241 140.614C155.334 140.55 143.325 142.258 132.77 152.074C121.967 163.688 119.697 174.518 119.726 190.017C119.721 191.442 119.716 192.868 119.71 194.293C119.696 198.197 119.694 202.101 119.695 206.004C119.693 210.22 119.68 214.436 119.668 218.651C119.646 227.862 119.638 237.073 119.633 246.283C119.629 252.038 119.623 257.792 119.616 263.547C119.596 279.489 119.58 295.431 119.577 311.374C119.576 312.393 119.576 313.413 119.576 314.463C119.576 316.53 119.575 318.596 119.575 320.663C119.575 321.689 119.575 322.715 119.574 323.771C119.574 324.799 119.574 325.826 119.574 326.884C119.57 343.527 119.543 360.169 119.506 376.812C119.468 393.912 119.449 411.011 119.448 428.111C119.448 437.707 119.439 447.302 119.41 456.898C119.386 465.068 119.378 473.238 119.393 481.409C119.401 485.574 119.4 489.74 119.377 493.905C119.356 497.725 119.359 501.544 119.38 505.364C119.385 507.387 119.366 509.41 119.345 511.432C119.463 524.32 123.835 534.745 132.879 543.902C142.569 552.872 152.795 555.313 165.741 555.252C166.8 555.254 167.859 555.257 168.949 555.261C172.485 555.268 176.021 555.262 179.557 555.255C182.097 555.258 184.636 555.262 187.176 555.266C192.64 555.274 198.103 555.277 203.567 555.274C211.475 555.271 219.383 555.283 227.291 555.299C240.134 555.325 252.978 555.345 265.821 555.358C266.973 555.36 266.973 555.36 268.148 555.361C279.049 555.372 289.951 555.377 300.852 555.38C302.004 555.381 302.004 555.381 303.179 555.381C304.33 555.381 304.33 555.381 305.503 555.381C318.3 555.385 331.097 555.404 343.893 555.436C351.78 555.455 359.666 555.461 367.553 555.45C373.597 555.443 379.64 555.457 385.684 555.478C388.16 555.483 390.637 555.482 393.114 555.473C396.496 555.462 399.877 555.475 403.259 555.494C404.238 555.485 405.217 555.476 406.226 555.467C414.831 555.563 421.17 558.542 427.523 564.301C430.927 568.218 431.843 572.507 432.375 577.562C431.797 582.865 430.125 586.585 426.812 590.75C420.125 596.1 413.381 596.437 405.154 596.381C403.549 596.388 403.549 596.388 401.911 596.395C398.337 596.407 394.762 596.398 391.187 596.388C388.619 596.392 386.051 596.398 383.483 596.404C377.238 596.417 370.992 596.415 364.746 596.406C359.665 596.399 354.583 596.398 349.501 596.401C348.777 596.402 348.052 596.402 347.306 596.403C345.834 596.404 344.362 596.405 342.889 596.406C329.092 596.414 315.294 596.404 301.497 596.388C289.684 596.375 277.871 596.377 266.058 596.391C252.319 596.407 238.58 596.413 224.842 596.404C223.373 596.403 221.904 596.402 220.436 596.401C219.352 596.401 219.352 596.401 218.246 596.4C213.18 596.397 208.114 596.402 203.048 596.409C196.21 596.418 189.372 596.411 182.534 596.394C180.033 596.39 177.531 596.391 175.03 596.398C147.223 596.465 123.744 592.129 103 572C102.375 571.448 101.75 570.897 101.105 570.328C86.9152 557.387 80.1062 536.97 78.7255 518.286C78.6157 514.543 78.5948 510.812 78.6123 507.068C78.6081 505.641 78.6027 504.213 78.596 502.786C78.5817 498.914 78.5857 495.042 78.5932 491.17C78.5979 486.974 78.5854 482.778 78.5752 478.582C78.558 470.382 78.5571 462.181 78.5624 453.981C78.5664 447.31 78.5649 440.638 78.5596 433.967C78.5589 433.014 78.5581 432.062 78.5573 431.08C78.5558 429.144 78.5543 427.208 78.5527 425.273C78.539 407.154 78.5444 389.035 78.5559 370.916C78.5658 354.376 78.5529 337.836 78.529 321.295C78.5045 304.271 78.495 287.247 78.5016 270.222C78.5051 260.681 78.503 251.139 78.4854 241.598C78.4706 233.475 78.4701 225.352 78.4875 217.23C78.4959 213.093 78.4982 208.958 78.4828 204.821C78.3722 172.796 81.8035 147.076 104.691 123.191C123.444 105.257 145.233 99.5063 170.351 99.619Z" fill="white"/>
<path d="M416.375 439.312C422.147 439.364 425.37 443.495 429.242 447.297C433.242 451.217 437.553 454.603 442 458C442.655 458.5 443.309 459 443.984 459.516C476.25 484.039 510.432 501.66 549 514C550.528 514.5 550.528 514.5 552.087 515.01C559.638 517.425 567.133 519.193 574.937 520.562C575.963 520.758 576.988 520.953 578.045 521.154C591.902 523.629 605.995 524.682 620 526C619.98 524.727 619.98 524.727 619.96 523.428C619.839 515.41 619.748 507.392 619.689 499.373C619.658 495.251 619.616 491.13 619.547 487.008C619.482 483.027 619.446 479.046 619.431 475.065C619.42 473.549 619.398 472.034 619.366 470.519C619.091 457.164 619.091 457.164 622.849 452.576C625.772 449.772 628.242 449.057 632.312 448.75C637.241 449.084 640.521 450.644 644.168 453.988C649.329 459.928 654.233 466.027 659.059 472.238C666.53 481.835 674.321 491.184 682.062 500.562C689.422 509.482 696.694 518.471 703.805 527.59C708.271 533.317 712.779 538.98 717.5 544.5C721.446 549.117 725.295 553.799 729.062 558.562C729.528 559.146 729.993 559.73 730.473 560.332C734.348 565.269 736.77 568.584 736 575C731.555 583.891 722.196 589.688 714.509 595.649C710.208 599 706.051 602.485 701.938 606.062C696.982 610.366 691.916 614.454 686.688 618.42C681.343 622.477 676.171 626.726 671 631C669.167 632.501 667.334 634.001 665.5 635.5C662.782 637.722 660.065 639.946 657.355 642.18C651.678 646.851 645.939 651.433 640.148 655.962C635.695 659.446 631.282 662.977 626.891 666.539C623.378 669.253 620.616 669.422 616.266 669.316C614 669 614 669 610.937 667.312C606.345 659.462 609.084 649.57 610.644 641.031C612.141 632.688 613.156 624.286 614.187 615.875C614.278 615.14 614.368 614.406 614.461 613.649C614.979 609.433 615.492 605.217 616 601C615.216 601.02 614.432 601.041 613.624 601.062C605.478 601.18 597.728 600.514 589.687 599.25C587.914 598.977 587.914 598.977 586.105 598.699C577.234 597.29 568.625 595.539 560 593C559.264 592.786 558.528 592.572 557.77 592.352C533.893 585.351 511.476 575.237 491 561C490.278 560.5 489.557 560 488.813 559.485C477.665 551.691 467.473 543.298 457.784 533.753C456.114 532.112 454.424 530.493 452.727 528.879C445.887 522.306 439.963 515.246 434.264 507.67C433.095 506.125 431.898 504.601 430.699 503.078C424.04 494.514 418.442 485.372 413 476C412.324 474.842 412.324 474.842 411.635 473.661C410.337 471.411 409.07 469.147 407.812 466.875C407.426 466.201 407.039 465.527 406.641 464.833C404.03 459.985 403.306 456.509 404 451C405.715 448.066 405.715 448.066 407.937 445.562C409.034 444.296 409.034 444.296 410.152 443.004C412.904 440.02 412.904 440.02 416.375 439.312Z" fill="white"/>
<path d="M456 259.5C459.884 262.645 463.174 266.317 466.499 270.037C473.223 277.556 480.491 284.551 487.668 291.633C489.843 293.84 491.897 296.106 493.938 298.438C498.392 303.429 503.082 308.147 507.863 312.826C510.836 315.755 513.676 318.734 516.398 321.898C520.218 326.322 524.332 330.407 528.5 334.5C533.312 339.226 537.941 344.006 542.339 349.121C545.371 352.551 548.687 355.692 551.988 358.861C555.656 362.45 556.938 364.353 557.134 369.568C557.143 371.077 557.146 372.586 557.145 374.096C557.15 375.333 557.15 375.333 557.155 376.595C557.165 379.324 557.167 382.052 557.168 384.781C557.171 386.676 557.175 388.57 557.178 390.464C557.184 394.435 557.186 398.406 557.185 402.377C557.185 407.472 557.199 412.567 557.216 417.661C557.227 421.573 557.229 425.485 557.229 429.397C557.23 431.275 557.234 433.154 557.242 435.033C557.252 437.657 557.249 440.28 557.243 442.904C557.249 443.684 557.254 444.463 557.26 445.266C557.238 449.054 557.154 450.768 555 454C549.45 453.412 544.948 451.431 539.938 449.125C539.069 448.729 538.201 448.332 537.306 447.924C522.253 440.963 507.745 433.285 494 424C493.047 423.38 492.095 422.76 491.113 422.121C481.849 416.067 472.935 409.526 464 403C463.216 402.429 462.433 401.859 461.625 401.271C451.959 394.228 442.396 387.081 433.049 379.617C423.879 372.369 416.852 369.118 405 370C394.337 373.047 385.761 381.894 377.848 389.344C375.388 391.638 372.876 393.825 370.312 396C360.329 404.842 351.366 415.799 349.559 429.297C349.158 440.715 352.587 449.633 357 460C357.374 460.88 357.748 461.76 358.133 462.667C358.512 463.556 358.891 464.446 359.281 465.363C359.651 466.234 360.021 467.104 360.402 468.001C361.123 469.683 361.855 471.361 362.598 473.034C363.455 474.999 364.235 476.997 365 479C364.67 479.66 364.34 480.32 364 481C362 480 362 480 361.148 477.664C359.78 474.491 358.392 473.408 355.625 471.375C351.515 468.233 347.659 464.955 343.875 461.438C339.962 457.808 336.015 454.232 331.984 450.734C328.808 447.958 325.682 445.128 322.551 442.301C320.927 440.836 319.299 439.375 317.668 437.918C311.834 432.703 306.111 427.378 300.403 422.026C296.595 418.463 292.731 414.99 288.777 411.59C285.372 408.544 282.196 405.263 279 402C278.34 401.34 277.68 400.68 277 400C277.99 400 278.98 400 280 400C280.055 399.455 280.111 398.91 280.167 398.349C281.374 394.945 283.776 392.875 286.32 390.422C286.857 389.892 287.394 389.361 287.947 388.815C289.666 387.119 291.395 385.434 293.125 383.75C295.381 381.54 297.634 379.326 299.883 377.109C300.427 376.574 300.972 376.038 301.532 375.486C304.993 372.059 308.261 368.527 311.417 364.815C314.32 361.487 317.483 358.413 320.625 355.313C321.267 354.675 321.909 354.038 322.57 353.381C325.257 350.713 327.949 348.05 330.645 345.391C333.194 342.803 335.63 340.135 338.062 337.438C342.9 332.107 347.932 327.016 353.078 321.984C355.27 319.798 357.309 317.518 359.328 315.172C363.841 309.958 368.767 305.184 373.684 300.355C377.079 296.997 380.384 293.622 383.5 290C387.944 284.834 392.825 280.127 397.684 275.355C401.176 271.901 404.541 268.425 407.723 264.68C419.988 250.449 440.769 249.036 456 259.5Z" fill="#0C7535"/>
<path d="M280.812 203.312C294.072 214.354 304.181 229.556 306 247C307.34 267.408 302.791 283.719 289.308 299.43C285.061 304.168 280.526 307.815 275 311C273.614 311.814 273.614 311.814 272.199 312.645C258.22 320.254 240.986 322.505 225.418 318.75C208.158 313.396 193.925 303.572 184.531 287.93C175.763 271.154 173.125 253.859 178.687 235.625C185.802 215.975 198.047 203.271 216.875 194.289C238.447 185.391 262.29 189.71 280.812 203.312Z" fill="#FDAF0C"/>
<path d="M393 528C395 529.312 395 529.312 397 531C397 531.99 397 532.98 397 534C319.45 534 241.9 534 162 534C162 533.67 162 533.34 162 533C276.345 532.505 276.345 532.505 393 532C393 530.68 393 529.36 393 528Z" fill="#0C711C"/>
<path d="M205 366C205 369 205 369 203.102 371.121C202.284 371.886 201.467 372.65 200.625 373.438C197.667 376.212 195.786 378.408 194 382C192.506 383.629 190.96 385.21 189.375 386.75C188.558 387.549 187.74 388.348 186.898 389.172C186.272 389.775 185.645 390.378 185 391C184.01 390.67 183.02 390.34 182 390C186.902 384.238 192.057 378.816 197.438 373.5C198.169 372.773 198.901 372.046 199.654 371.297C201.434 369.529 203.216 367.763 205 366Z" fill="#187E2C"/>
<path d="M175 397C175.33 397.99 175.66 398.98 176 400C174.377 401.482 172.752 402.96 171.125 404.438C169.768 405.673 169.768 405.673 168.383 406.934C166 409 166 409 164 410C165.536 406.319 167.782 404.012 170.625 401.25C171.442 400.451 172.26 399.652 173.102 398.828C174.041 397.923 174.041 397.923 175 397Z" fill="#0E7020"/>
<path d="M333 343C333.33 343.99 333.66 344.98 334 346C332.35 347.65 330.7 349.3 329 351C328.01 350.67 327.02 350.34 326 350C328.219 347.092 329.93 345.047 333 343Z" fill="#0F6B2C"/>
<path d="M413 261C413.66 261.33 414.32 261.66 415 262C411.981 265.483 409.431 266.792 405 268C407.578 265.352 409.916 263.056 413 261Z" fill="#1E7F3E"/>
<path d="M483 290C488.75 292.625 488.75 292.625 491 296C487.068 296 485.836 294.606 483 292C483 291.34 483 290.68 483 290Z" fill="#1F823D"/>
<path d="M566.491 722.91L650.977 765.957L639.101 789.266L554.615 746.218L566.491 722.91Z" fill="white"/>
<path d="M811.347 604.031L695.438 777.176L673.7 762.624L789.608 589.478L811.347 604.031Z" fill="white"/>
<path d="M852.04 731.203L704.114 791.576L694.229 767.355L842.155 706.982L852.04 731.203Z" fill="white"/>
<path d="M844.962 700.17L813 601.027L837.898 593L869.86 692.144L844.962 700.17Z" fill="white"/>
<path fill-rule="evenodd" clip-rule="evenodd" d="M861.5 739C876.136 739 888 727.136 888 712.5C888 697.864 876.136 686 861.5 686C846.864 686 835 697.864 835 712.5C835 727.136 846.864 739 861.5 739ZM862 724C868.627 724 874 718.627 874 712C874 705.373 868.627 700 862 700C855.373 700 850 705.373 850 712C850 718.627 855.373 724 862 724Z" fill="white"/>
<path fill-rule="evenodd" clip-rule="evenodd" d="M814.5 615C836.315 615 854 597.315 854 575.5C854 553.685 836.315 536 814.5 536C792.685 536 775 553.685 775 575.5C775 597.315 792.685 615 814.5 615ZM814.5 593C824.165 593 832 585.165 832 575.5C832 565.835 824.165 558 814.5 558C804.835 558 797 565.835 797 575.5C797 585.165 804.835 593 814.5 593Z" fill="white"/>
<path fill-rule="evenodd" clip-rule="evenodd" d="M670.5 830C692.315 830 710 812.315 710 790.5C710 768.685 692.315 751 670.5 751C648.685 751 631 768.685 631 790.5C631 812.315 648.685 830 670.5 830ZM670.5 808C680.165 808 688 800.165 688 790.5C688 780.835 680.165 773 670.5 773C660.835 773 653 780.835 653 790.5C653 800.165 660.835 808 670.5 808Z" fill="white"/>
<path fill-rule="evenodd" clip-rule="evenodd" d="M533.5 760C555.315 760 573 742.315 573 720.5C573 698.685 555.315 681 533.5 681C511.685 681 494 698.685 494 720.5C494 742.315 511.685 760 533.5 760ZM533.5 738C543.165 738 551 730.165 551 720.5C551 710.835 543.165 703 533.5 703C523.835 703 516 710.835 516 720.5C516 730.165 523.835 738 533.5 738Z" fill="white"/>
</svg>
